<?xml version="1.0" standalone="no"?><!DOCTYPE svg PUBLIC "-//W3C//DTD SVG 1.1//EN" "http://www.w3.org/Graphics/SVG/1.1/DTD/svg11.dtd"><svg t="1652366333046" class="icon" viewBox="0 0 1024 1024" version="1.1" xmlns="http://www.w3.org/2000/svg" p-id="6648" width="64" height="64" xmlns:xlink="http://www.w3.org/1999/xlink"><defs><style type="text/css">@font-face { font-family: "feedback-iconfont"; src: url("//at.alicdn.com/t/font_1031158_u69w8yhxdu.woff2?t=1630033759944") format("woff2"), url("//at.alicdn.com/t/font_1031158_u69w8yhxdu.woff?t=1630033759944") format("woff"), url("//at.alicdn.com/t/font_1031158_u69w8yhxdu.ttf?t=1630033759944") format("truetype"); }
</style></defs><path d="M597.19766667 952.156L72.66666667 831.22V184.344L597.19766667 62v890.156z" fill="#42b883" p-id="6649"></path><path d="M442.51066667 655.438l78.75-333.282-68.906 2.813-39.375 219.375c0 5.625-2.813 11.25-2.813 18.281v19.688c0-5.625 0-11.25-1.406-16.875s0-11.25-2.813-18.282L359.54166667 332l-64.688 4.219-46.406 205.312c-1.406 5.625-2.812 11.25-2.812 18.282v18.28-16.874c0-5.625 0-11.25-2.813-16.875l-37.969-203.907-56.25 4.22 63.282 296.718 64.687 4.219L320.16666667 445.906V409.344v18.281c0 5.625 0 11.25 2.813 16.875l50.625 206.719 68.906 4.218z" fill="#FFFFFF" p-id="6650"></path><path d="M575.86433334 136.531v74.531H876.80333334V804.5H575.86333334v73.125H951.33333334V136.531H575.86433334z" fill="#42b883" p-id="6651"></path><path d="M649.63942034 344.47635225v190.14280073h51.85705381v155.57116143l120.99952212-207.42821525H753.35352795L822.49599627 344.47635225H649.63942034z" fill="#FFAB00" p-id="6652"></path></svg>