<svg viewBox="0 0 1024 1024" version="1.1" xmlns="http://www.w3.org/2000/svg">
  <path
    d="M614.26934518 1012.79971555L17.46962963 875.20142222V139.20028445L614.26934518 0v1012.79971555z"
    fill="#42b883"></path>
  <path
    d="M438.26991408 675.20056889l89.6-379.20085334-78.39971557 3.2005689-44.8 249.6c0 6.4-3.20056889 12.8-3.20056888 20.79971555v22.40056889c0-6.4 0-12.8-1.59971555-19.2s0-12.8-3.2005689-20.80085334L343.86962963 307.2l-73.60056889 4.80028445-52.79971556 233.5994311c-1.59971555 6.4-3.19943111 12.8-3.1994311 20.80085334v20.79857778-19.19886222c0-6.4 0-12.8-3.2005689-19.2l-43.20028444-232.00085334-64 4.80142222 72.00085334 337.59914667 73.5994311 4.80028445L299.06962963 436.79971555V395.20028445v20.79971555c0 6.4 0 12.8 3.20056888 19.2l57.6 235.20028445 78.39971557 4.79914666z"
    fill="#FFFFFF"></path>
  <path
    d="M589.99675259 84.79971555v84.79971556H932.39845926V844.8H589.99561482v83.2H1017.19703704V84.79971555H589.99675259z"
    fill="#42b883"></path>
  <path
    d="M673.93640714 321.39531634v216.34025327h59.00180345v177.00541034l137.67056738-236.0072138H791.94001402L870.60877797 321.39531634H673.93640714z"
    fill="#FFAB00"></path>
</svg>
